<mxfile host="app.diagrams.net" modified="2023-10-28T18:15:58.773Z" agent="Mozilla/5.0 (Windows NT 10.0; Win64; x64) AppleWebKit/537.36 (KHTML, like Gecko) Chrome/118.0.0.0 Safari/537.36" etag="OqZ5kc_TD5W6HnRAAVay" version="22.0.0" type="device">
  <diagram name="Pagina-1" id="GnzxFn3cRSb0T_MMJsGV">
    <mxGraphModel dx="3827" dy="1617" grid="1" gridSize="10" guides="1" tooltips="1" connect="1" arrows="1" fold="1" page="1" pageScale="1" pageWidth="827" pageHeight="1169" math="0" shadow="0">
      <root>
        <mxCell id="0" />
        <mxCell id="1" parent="0" />
        <mxCell id="4im4NbG-fQseT-FAdjms-1" value="" style="ellipse;whiteSpace=wrap;html=1;aspect=fixed;strokeColor=#000000;fillColor=#000000;" vertex="1" parent="1">
          <mxGeometry x="60" y="60" width="80" height="80" as="geometry" />
        </mxCell>
        <mxCell id="4im4NbG-fQseT-FAdjms-2" value="" style="endArrow=classic;html=1;rounded=0;exitX=0.5;exitY=1;exitDx=0;exitDy=0;" edge="1" parent="1" source="4im4NbG-fQseT-FAdjms-1">
          <mxGeometry width="50" height="50" relative="1" as="geometry">
            <mxPoint x="390" y="300" as="sourcePoint" />
            <mxPoint x="170" y="180" as="targetPoint" />
          </mxGeometry>
        </mxCell>
        <mxCell id="4im4NbG-fQseT-FAdjms-14" value="" style="edgeStyle=orthogonalEdgeStyle;rounded=0;orthogonalLoop=1;jettySize=auto;html=1;" edge="1" parent="1" source="4im4NbG-fQseT-FAdjms-3" target="4im4NbG-fQseT-FAdjms-13">
          <mxGeometry relative="1" as="geometry" />
        </mxCell>
        <mxCell id="4im4NbG-fQseT-FAdjms-3" value="begin" style="whiteSpace=wrap;html=1;aspect=fixed;" vertex="1" parent="1">
          <mxGeometry x="170" y="140" width="80" height="80" as="geometry" />
        </mxCell>
        <mxCell id="4im4NbG-fQseT-FAdjms-5" value="" style="endArrow=classic;html=1;rounded=0;exitX=1;exitY=0.5;exitDx=0;exitDy=0;entryX=0.065;entryY=0.605;entryDx=0;entryDy=0;entryPerimeter=0;" edge="1" parent="1" source="4im4NbG-fQseT-FAdjms-3" target="4im4NbG-fQseT-FAdjms-10">
          <mxGeometry width="50" height="50" relative="1" as="geometry">
            <mxPoint x="390" y="300" as="sourcePoint" />
            <mxPoint x="290" y="190" as="targetPoint" />
          </mxGeometry>
        </mxCell>
        <mxCell id="4im4NbG-fQseT-FAdjms-9" value="" style="edgeStyle=orthogonalEdgeStyle;rounded=0;orthogonalLoop=1;jettySize=auto;html=1;" edge="1" parent="1" source="4im4NbG-fQseT-FAdjms-6" target="4im4NbG-fQseT-FAdjms-8">
          <mxGeometry relative="1" as="geometry" />
        </mxCell>
        <mxCell id="4im4NbG-fQseT-FAdjms-24" value="" style="edgeStyle=orthogonalEdgeStyle;rounded=0;orthogonalLoop=1;jettySize=auto;html=1;" edge="1" parent="1" source="4im4NbG-fQseT-FAdjms-6" target="4im4NbG-fQseT-FAdjms-23">
          <mxGeometry relative="1" as="geometry" />
        </mxCell>
        <mxCell id="4im4NbG-fQseT-FAdjms-6" value="stukje 1" style="whiteSpace=wrap;html=1;aspect=fixed;" vertex="1" parent="1">
          <mxGeometry x="350" y="150" width="80" height="80" as="geometry" />
        </mxCell>
        <mxCell id="4im4NbG-fQseT-FAdjms-18" style="edgeStyle=orthogonalEdgeStyle;rounded=0;orthogonalLoop=1;jettySize=auto;html=1;" edge="1" parent="1" source="4im4NbG-fQseT-FAdjms-8">
          <mxGeometry relative="1" as="geometry">
            <mxPoint x="420" y="360" as="targetPoint" />
          </mxGeometry>
        </mxCell>
        <mxCell id="4im4NbG-fQseT-FAdjms-8" value="keuze A" style="rhombus;whiteSpace=wrap;html=1;" vertex="1" parent="1">
          <mxGeometry x="290" y="270" width="80" height="80" as="geometry" />
        </mxCell>
        <mxCell id="4im4NbG-fQseT-FAdjms-10" value="keuze A" style="rhombus;whiteSpace=wrap;html=1;" vertex="1" parent="1">
          <mxGeometry x="280" y="60" width="80" height="80" as="geometry" />
        </mxCell>
        <mxCell id="4im4NbG-fQseT-FAdjms-12" value="" style="endArrow=classic;html=1;rounded=0;exitX=1;exitY=0.5;exitDx=0;exitDy=0;" edge="1" parent="1" source="4im4NbG-fQseT-FAdjms-10">
          <mxGeometry width="50" height="50" relative="1" as="geometry">
            <mxPoint x="390" y="300" as="sourcePoint" />
            <mxPoint x="390" y="150" as="targetPoint" />
          </mxGeometry>
        </mxCell>
        <mxCell id="4im4NbG-fQseT-FAdjms-16" value="" style="edgeStyle=orthogonalEdgeStyle;rounded=0;orthogonalLoop=1;jettySize=auto;html=1;" edge="1" parent="1" source="4im4NbG-fQseT-FAdjms-13" target="4im4NbG-fQseT-FAdjms-15">
          <mxGeometry relative="1" as="geometry" />
        </mxCell>
        <mxCell id="4im4NbG-fQseT-FAdjms-13" value="keuze B" style="rhombus;whiteSpace=wrap;html=1;" vertex="1" parent="1">
          <mxGeometry x="160" y="240" width="80" height="80" as="geometry" />
        </mxCell>
        <mxCell id="4im4NbG-fQseT-FAdjms-15" value="stukje 20" style="whiteSpace=wrap;html=1;aspect=fixed;" vertex="1" parent="1">
          <mxGeometry x="150" y="350" width="80" height="80" as="geometry" />
        </mxCell>
        <mxCell id="4im4NbG-fQseT-FAdjms-20" value="" style="edgeStyle=orthogonalEdgeStyle;rounded=0;orthogonalLoop=1;jettySize=auto;html=1;" edge="1" parent="1" source="4im4NbG-fQseT-FAdjms-17" target="4im4NbG-fQseT-FAdjms-19">
          <mxGeometry relative="1" as="geometry" />
        </mxCell>
        <mxCell id="4im4NbG-fQseT-FAdjms-17" value="stukje 2" style="whiteSpace=wrap;html=1;aspect=fixed;" vertex="1" parent="1">
          <mxGeometry x="360" y="360" width="80" height="80" as="geometry" />
        </mxCell>
        <mxCell id="4im4NbG-fQseT-FAdjms-22" value="" style="edgeStyle=orthogonalEdgeStyle;rounded=0;orthogonalLoop=1;jettySize=auto;html=1;" edge="1" parent="1" source="4im4NbG-fQseT-FAdjms-19" target="4im4NbG-fQseT-FAdjms-21">
          <mxGeometry relative="1" as="geometry" />
        </mxCell>
        <mxCell id="4im4NbG-fQseT-FAdjms-19" value="keuze A" style="rhombus;whiteSpace=wrap;html=1;" vertex="1" parent="1">
          <mxGeometry x="360" y="460" width="80" height="80" as="geometry" />
        </mxCell>
        <mxCell id="4im4NbG-fQseT-FAdjms-26" value="" style="edgeStyle=orthogonalEdgeStyle;rounded=0;orthogonalLoop=1;jettySize=auto;html=1;" edge="1" parent="1" source="4im4NbG-fQseT-FAdjms-21" target="4im4NbG-fQseT-FAdjms-25">
          <mxGeometry relative="1" as="geometry" />
        </mxCell>
        <mxCell id="4im4NbG-fQseT-FAdjms-30" value="" style="edgeStyle=orthogonalEdgeStyle;rounded=0;orthogonalLoop=1;jettySize=auto;html=1;" edge="1" parent="1" source="4im4NbG-fQseT-FAdjms-21" target="4im4NbG-fQseT-FAdjms-29">
          <mxGeometry relative="1" as="geometry" />
        </mxCell>
        <mxCell id="4im4NbG-fQseT-FAdjms-21" value="stukje 3" style="whiteSpace=wrap;html=1;aspect=fixed;" vertex="1" parent="1">
          <mxGeometry x="360" y="570" width="80" height="80" as="geometry" />
        </mxCell>
        <mxCell id="4im4NbG-fQseT-FAdjms-23" value="keuze B" style="rhombus;whiteSpace=wrap;html=1;" vertex="1" parent="1">
          <mxGeometry x="480" y="160" width="80" height="80" as="geometry" />
        </mxCell>
        <mxCell id="4im4NbG-fQseT-FAdjms-28" value="" style="edgeStyle=orthogonalEdgeStyle;rounded=0;orthogonalLoop=1;jettySize=auto;html=1;" edge="1" parent="1" source="4im4NbG-fQseT-FAdjms-25" target="4im4NbG-fQseT-FAdjms-27">
          <mxGeometry relative="1" as="geometry" />
        </mxCell>
        <mxCell id="4im4NbG-fQseT-FAdjms-25" value="keuze A" style="rhombus;whiteSpace=wrap;html=1;" vertex="1" parent="1">
          <mxGeometry x="360" y="679" width="80" height="80" as="geometry" />
        </mxCell>
        <mxCell id="4im4NbG-fQseT-FAdjms-32" style="edgeStyle=orthogonalEdgeStyle;rounded=0;orthogonalLoop=1;jettySize=auto;html=1;entryX=0.5;entryY=0;entryDx=0;entryDy=0;" edge="1" parent="1" source="4im4NbG-fQseT-FAdjms-27" target="4im4NbG-fQseT-FAdjms-31">
          <mxGeometry relative="1" as="geometry" />
        </mxCell>
        <mxCell id="4im4NbG-fQseT-FAdjms-34" style="edgeStyle=orthogonalEdgeStyle;rounded=0;orthogonalLoop=1;jettySize=auto;html=1;entryX=0.5;entryY=0;entryDx=0;entryDy=0;" edge="1" parent="1" source="4im4NbG-fQseT-FAdjms-27" target="4im4NbG-fQseT-FAdjms-33">
          <mxGeometry relative="1" as="geometry" />
        </mxCell>
        <mxCell id="4im4NbG-fQseT-FAdjms-36" style="edgeStyle=orthogonalEdgeStyle;rounded=0;orthogonalLoop=1;jettySize=auto;html=1;" edge="1" parent="1" source="4im4NbG-fQseT-FAdjms-27">
          <mxGeometry relative="1" as="geometry">
            <mxPoint x="350" y="940" as="targetPoint" />
          </mxGeometry>
        </mxCell>
        <mxCell id="4im4NbG-fQseT-FAdjms-38" style="edgeStyle=orthogonalEdgeStyle;rounded=0;orthogonalLoop=1;jettySize=auto;html=1;entryX=0;entryY=0.5;entryDx=0;entryDy=0;" edge="1" parent="1" source="4im4NbG-fQseT-FAdjms-27" target="4im4NbG-fQseT-FAdjms-37">
          <mxGeometry relative="1" as="geometry">
            <Array as="points">
              <mxPoint x="370" y="860" />
              <mxPoint x="370" y="910" />
            </Array>
          </mxGeometry>
        </mxCell>
        <mxCell id="4im4NbG-fQseT-FAdjms-27" value="stukje 4" style="whiteSpace=wrap;html=1;aspect=fixed;" vertex="1" parent="1">
          <mxGeometry x="230" y="840" width="80" height="80" as="geometry" />
        </mxCell>
        <mxCell id="4im4NbG-fQseT-FAdjms-29" value="keuze B" style="rhombus;whiteSpace=wrap;html=1;" vertex="1" parent="1">
          <mxGeometry x="460" y="570" width="80" height="80" as="geometry" />
        </mxCell>
        <mxCell id="4im4NbG-fQseT-FAdjms-31" value="keuze A" style="rhombus;whiteSpace=wrap;html=1;" vertex="1" parent="1">
          <mxGeometry x="80" y="950" width="80" height="80" as="geometry" />
        </mxCell>
        <mxCell id="4im4NbG-fQseT-FAdjms-94" value="" style="edgeStyle=orthogonalEdgeStyle;rounded=0;orthogonalLoop=1;jettySize=auto;html=1;" edge="1" parent="1" source="4im4NbG-fQseT-FAdjms-33" target="4im4NbG-fQseT-FAdjms-93">
          <mxGeometry relative="1" as="geometry" />
        </mxCell>
        <mxCell id="4im4NbG-fQseT-FAdjms-33" value="keuze B" style="rhombus;whiteSpace=wrap;html=1;" vertex="1" parent="1">
          <mxGeometry x="190" y="960" width="80" height="80" as="geometry" />
        </mxCell>
        <mxCell id="4im4NbG-fQseT-FAdjms-74" value="" style="edgeStyle=orthogonalEdgeStyle;rounded=0;orthogonalLoop=1;jettySize=auto;html=1;" edge="1" parent="1" source="4im4NbG-fQseT-FAdjms-35" target="4im4NbG-fQseT-FAdjms-73">
          <mxGeometry relative="1" as="geometry" />
        </mxCell>
        <mxCell id="4im4NbG-fQseT-FAdjms-35" value="Keuze C" style="rhombus;whiteSpace=wrap;html=1;" vertex="1" parent="1">
          <mxGeometry x="310" y="940" width="80" height="80" as="geometry" />
        </mxCell>
        <mxCell id="4im4NbG-fQseT-FAdjms-117" value="" style="edgeStyle=orthogonalEdgeStyle;rounded=0;orthogonalLoop=1;jettySize=auto;html=1;" edge="1" parent="1" source="4im4NbG-fQseT-FAdjms-37" target="4im4NbG-fQseT-FAdjms-116">
          <mxGeometry relative="1" as="geometry" />
        </mxCell>
        <mxCell id="4im4NbG-fQseT-FAdjms-37" value="keuze D" style="rhombus;whiteSpace=wrap;html=1;" vertex="1" parent="1">
          <mxGeometry x="420" y="870" width="80" height="80" as="geometry" />
        </mxCell>
        <mxCell id="4im4NbG-fQseT-FAdjms-43" style="edgeStyle=orthogonalEdgeStyle;rounded=0;orthogonalLoop=1;jettySize=auto;html=1;entryX=0.5;entryY=0;entryDx=0;entryDy=0;" edge="1" parent="1" source="4im4NbG-fQseT-FAdjms-39" target="4im4NbG-fQseT-FAdjms-42">
          <mxGeometry relative="1" as="geometry" />
        </mxCell>
        <mxCell id="4im4NbG-fQseT-FAdjms-39" value="stukje 5" style="whiteSpace=wrap;html=1;aspect=fixed;" vertex="1" parent="1">
          <mxGeometry x="40" y="1050" width="80" height="80" as="geometry" />
        </mxCell>
        <mxCell id="4im4NbG-fQseT-FAdjms-41" value="" style="endArrow=classic;html=1;rounded=0;exitX=0;exitY=0.5;exitDx=0;exitDy=0;entryX=0.5;entryY=0;entryDx=0;entryDy=0;" edge="1" parent="1" source="4im4NbG-fQseT-FAdjms-31" target="4im4NbG-fQseT-FAdjms-39">
          <mxGeometry width="50" height="50" relative="1" as="geometry">
            <mxPoint x="390" y="1050" as="sourcePoint" />
            <mxPoint x="440" y="1000" as="targetPoint" />
          </mxGeometry>
        </mxCell>
        <mxCell id="4im4NbG-fQseT-FAdjms-45" value="" style="edgeStyle=orthogonalEdgeStyle;rounded=0;orthogonalLoop=1;jettySize=auto;html=1;" edge="1" parent="1" source="4im4NbG-fQseT-FAdjms-42" target="4im4NbG-fQseT-FAdjms-44">
          <mxGeometry relative="1" as="geometry" />
        </mxCell>
        <mxCell id="4im4NbG-fQseT-FAdjms-42" value="keuze A" style="rhombus;whiteSpace=wrap;html=1;" vertex="1" parent="1">
          <mxGeometry x="40" y="1190" width="80" height="80" as="geometry" />
        </mxCell>
        <mxCell id="4im4NbG-fQseT-FAdjms-48" style="edgeStyle=orthogonalEdgeStyle;rounded=0;orthogonalLoop=1;jettySize=auto;html=1;entryX=0.5;entryY=0;entryDx=0;entryDy=0;" edge="1" parent="1" source="4im4NbG-fQseT-FAdjms-44" target="4im4NbG-fQseT-FAdjms-47">
          <mxGeometry relative="1" as="geometry" />
        </mxCell>
        <mxCell id="4im4NbG-fQseT-FAdjms-44" value="stukje 6" style="whiteSpace=wrap;html=1;aspect=fixed;" vertex="1" parent="1">
          <mxGeometry x="40" y="1320" width="80" height="80" as="geometry" />
        </mxCell>
        <mxCell id="4im4NbG-fQseT-FAdjms-50" value="" style="edgeStyle=orthogonalEdgeStyle;rounded=0;orthogonalLoop=1;jettySize=auto;html=1;" edge="1" parent="1" source="4im4NbG-fQseT-FAdjms-47" target="4im4NbG-fQseT-FAdjms-49">
          <mxGeometry relative="1" as="geometry" />
        </mxCell>
        <mxCell id="4im4NbG-fQseT-FAdjms-47" value="keuze A" style="rhombus;whiteSpace=wrap;html=1;" vertex="1" parent="1">
          <mxGeometry x="40" y="1460" width="80" height="80" as="geometry" />
        </mxCell>
        <mxCell id="4im4NbG-fQseT-FAdjms-52" value="" style="edgeStyle=orthogonalEdgeStyle;rounded=0;orthogonalLoop=1;jettySize=auto;html=1;" edge="1" parent="1" source="4im4NbG-fQseT-FAdjms-49" target="4im4NbG-fQseT-FAdjms-51">
          <mxGeometry relative="1" as="geometry" />
        </mxCell>
        <mxCell id="4im4NbG-fQseT-FAdjms-56" value="" style="edgeStyle=orthogonalEdgeStyle;rounded=0;orthogonalLoop=1;jettySize=auto;html=1;" edge="1" parent="1" source="4im4NbG-fQseT-FAdjms-49" target="4im4NbG-fQseT-FAdjms-55">
          <mxGeometry relative="1" as="geometry" />
        </mxCell>
        <mxCell id="4im4NbG-fQseT-FAdjms-49" value="stukje 7" style="whiteSpace=wrap;html=1;aspect=fixed;" vertex="1" parent="1">
          <mxGeometry x="40" y="1570" width="80" height="80" as="geometry" />
        </mxCell>
        <mxCell id="4im4NbG-fQseT-FAdjms-54" value="" style="edgeStyle=orthogonalEdgeStyle;rounded=0;orthogonalLoop=1;jettySize=auto;html=1;" edge="1" parent="1" source="4im4NbG-fQseT-FAdjms-51" target="4im4NbG-fQseT-FAdjms-53">
          <mxGeometry relative="1" as="geometry" />
        </mxCell>
        <mxCell id="4im4NbG-fQseT-FAdjms-51" value="keuze A" style="rhombus;whiteSpace=wrap;html=1;" vertex="1" parent="1">
          <mxGeometry x="40" y="1674" width="80" height="80" as="geometry" />
        </mxCell>
        <mxCell id="4im4NbG-fQseT-FAdjms-61" value="" style="edgeStyle=orthogonalEdgeStyle;rounded=0;orthogonalLoop=1;jettySize=auto;html=1;" edge="1" parent="1" source="4im4NbG-fQseT-FAdjms-53" target="4im4NbG-fQseT-FAdjms-60">
          <mxGeometry relative="1" as="geometry" />
        </mxCell>
        <mxCell id="4im4NbG-fQseT-FAdjms-64" value="" style="edgeStyle=orthogonalEdgeStyle;rounded=0;orthogonalLoop=1;jettySize=auto;html=1;" edge="1" parent="1" source="4im4NbG-fQseT-FAdjms-53" target="4im4NbG-fQseT-FAdjms-63">
          <mxGeometry relative="1" as="geometry" />
        </mxCell>
        <mxCell id="4im4NbG-fQseT-FAdjms-53" value="stukje 8" style="whiteSpace=wrap;html=1;aspect=fixed;" vertex="1" parent="1">
          <mxGeometry x="40" y="1790" width="80" height="80" as="geometry" />
        </mxCell>
        <mxCell id="4im4NbG-fQseT-FAdjms-58" value="" style="edgeStyle=orthogonalEdgeStyle;rounded=0;orthogonalLoop=1;jettySize=auto;html=1;" edge="1" parent="1" source="4im4NbG-fQseT-FAdjms-55" target="4im4NbG-fQseT-FAdjms-57">
          <mxGeometry relative="1" as="geometry" />
        </mxCell>
        <mxCell id="4im4NbG-fQseT-FAdjms-55" value="keuze b" style="rhombus;whiteSpace=wrap;html=1;" vertex="1" parent="1">
          <mxGeometry x="-100" y="1570" width="80" height="80" as="geometry" />
        </mxCell>
        <mxCell id="4im4NbG-fQseT-FAdjms-70" value="" style="edgeStyle=orthogonalEdgeStyle;rounded=0;orthogonalLoop=1;jettySize=auto;html=1;" edge="1" parent="1" source="4im4NbG-fQseT-FAdjms-57" target="4im4NbG-fQseT-FAdjms-69">
          <mxGeometry relative="1" as="geometry" />
        </mxCell>
        <mxCell id="4im4NbG-fQseT-FAdjms-57" value="stukje 9" style="whiteSpace=wrap;html=1;aspect=fixed;" vertex="1" parent="1">
          <mxGeometry x="-120" y="1754" width="80" height="80" as="geometry" />
        </mxCell>
        <mxCell id="4im4NbG-fQseT-FAdjms-62" style="edgeStyle=orthogonalEdgeStyle;rounded=0;orthogonalLoop=1;jettySize=auto;html=1;entryX=0.75;entryY=1;entryDx=0;entryDy=0;" edge="1" parent="1" source="4im4NbG-fQseT-FAdjms-60" target="4im4NbG-fQseT-FAdjms-57">
          <mxGeometry relative="1" as="geometry" />
        </mxCell>
        <mxCell id="4im4NbG-fQseT-FAdjms-60" value="keuze A" style="rhombus;whiteSpace=wrap;html=1;" vertex="1" parent="1">
          <mxGeometry x="40" y="1910" width="80" height="80" as="geometry" />
        </mxCell>
        <mxCell id="4im4NbG-fQseT-FAdjms-63" value="keuze b" style="rhombus;whiteSpace=wrap;html=1;" vertex="1" parent="1">
          <mxGeometry x="190" y="1790" width="80" height="80" as="geometry" />
        </mxCell>
        <mxCell id="4im4NbG-fQseT-FAdjms-129" style="edgeStyle=orthogonalEdgeStyle;rounded=0;orthogonalLoop=1;jettySize=auto;html=1;" edge="1" parent="1" source="4im4NbG-fQseT-FAdjms-67">
          <mxGeometry relative="1" as="geometry">
            <mxPoint x="-220" y="2100" as="targetPoint" />
          </mxGeometry>
        </mxCell>
        <mxCell id="4im4NbG-fQseT-FAdjms-67" value="stukje 4" style="whiteSpace=wrap;html=1;aspect=fixed;" vertex="1" parent="1">
          <mxGeometry x="-50" y="2050" width="80" height="80" as="geometry" />
        </mxCell>
        <mxCell id="4im4NbG-fQseT-FAdjms-68" value="" style="endArrow=classic;html=1;rounded=0;exitX=0.5;exitY=1;exitDx=0;exitDy=0;entryX=1;entryY=0;entryDx=0;entryDy=0;" edge="1" parent="1" source="4im4NbG-fQseT-FAdjms-63" target="4im4NbG-fQseT-FAdjms-67">
          <mxGeometry width="50" height="50" relative="1" as="geometry">
            <mxPoint x="130" y="1910" as="sourcePoint" />
            <mxPoint x="180" y="1860" as="targetPoint" />
          </mxGeometry>
        </mxCell>
        <mxCell id="4im4NbG-fQseT-FAdjms-69" value="keuze A" style="rhombus;whiteSpace=wrap;html=1;" vertex="1" parent="1">
          <mxGeometry x="-250" y="1780" width="80" height="80" as="geometry" />
        </mxCell>
        <mxCell id="4im4NbG-fQseT-FAdjms-72" value="" style="endArrow=classic;html=1;rounded=0;exitX=0.5;exitY=1;exitDx=0;exitDy=0;entryX=0;entryY=0;entryDx=0;entryDy=0;" edge="1" parent="1" source="4im4NbG-fQseT-FAdjms-69" target="4im4NbG-fQseT-FAdjms-67">
          <mxGeometry width="50" height="50" relative="1" as="geometry">
            <mxPoint x="130" y="1910" as="sourcePoint" />
            <mxPoint x="180" y="1860" as="targetPoint" />
          </mxGeometry>
        </mxCell>
        <mxCell id="4im4NbG-fQseT-FAdjms-76" value="" style="edgeStyle=orthogonalEdgeStyle;rounded=0;orthogonalLoop=1;jettySize=auto;html=1;" edge="1" parent="1" source="4im4NbG-fQseT-FAdjms-73" target="4im4NbG-fQseT-FAdjms-75">
          <mxGeometry relative="1" as="geometry" />
        </mxCell>
        <mxCell id="4im4NbG-fQseT-FAdjms-73" value="stukje 10" style="whiteSpace=wrap;html=1;aspect=fixed;" vertex="1" parent="1">
          <mxGeometry x="490" y="1080" width="80" height="80" as="geometry" />
        </mxCell>
        <mxCell id="4im4NbG-fQseT-FAdjms-78" value="" style="edgeStyle=orthogonalEdgeStyle;rounded=0;orthogonalLoop=1;jettySize=auto;html=1;" edge="1" parent="1" source="4im4NbG-fQseT-FAdjms-75" target="4im4NbG-fQseT-FAdjms-77">
          <mxGeometry relative="1" as="geometry" />
        </mxCell>
        <mxCell id="4im4NbG-fQseT-FAdjms-75" value="keuze A" style="rhombus;whiteSpace=wrap;html=1;" vertex="1" parent="1">
          <mxGeometry x="530" y="1220" width="80" height="80" as="geometry" />
        </mxCell>
        <mxCell id="4im4NbG-fQseT-FAdjms-80" value="" style="edgeStyle=orthogonalEdgeStyle;rounded=0;orthogonalLoop=1;jettySize=auto;html=1;" edge="1" parent="1" source="4im4NbG-fQseT-FAdjms-77" target="4im4NbG-fQseT-FAdjms-79">
          <mxGeometry relative="1" as="geometry" />
        </mxCell>
        <mxCell id="4im4NbG-fQseT-FAdjms-77" value="stukje 11" style="whiteSpace=wrap;html=1;aspect=fixed;" vertex="1" parent="1">
          <mxGeometry x="540" y="1350" width="80" height="80" as="geometry" />
        </mxCell>
        <mxCell id="4im4NbG-fQseT-FAdjms-82" value="" style="edgeStyle=orthogonalEdgeStyle;rounded=0;orthogonalLoop=1;jettySize=auto;html=1;" edge="1" parent="1" source="4im4NbG-fQseT-FAdjms-79" target="4im4NbG-fQseT-FAdjms-81">
          <mxGeometry relative="1" as="geometry" />
        </mxCell>
        <mxCell id="4im4NbG-fQseT-FAdjms-79" value="keuze A" style="rhombus;whiteSpace=wrap;html=1;" vertex="1" parent="1">
          <mxGeometry x="520" y="1490" width="80" height="80" as="geometry" />
        </mxCell>
        <mxCell id="4im4NbG-fQseT-FAdjms-84" value="" style="edgeStyle=orthogonalEdgeStyle;rounded=0;orthogonalLoop=1;jettySize=auto;html=1;" edge="1" parent="1" source="4im4NbG-fQseT-FAdjms-81" target="4im4NbG-fQseT-FAdjms-83">
          <mxGeometry relative="1" as="geometry" />
        </mxCell>
        <mxCell id="4im4NbG-fQseT-FAdjms-88" style="edgeStyle=orthogonalEdgeStyle;rounded=0;orthogonalLoop=1;jettySize=auto;html=1;entryX=0;entryY=0.5;entryDx=0;entryDy=0;" edge="1" parent="1" source="4im4NbG-fQseT-FAdjms-81" target="4im4NbG-fQseT-FAdjms-87">
          <mxGeometry relative="1" as="geometry" />
        </mxCell>
        <mxCell id="4im4NbG-fQseT-FAdjms-81" value="stukje 12" style="whiteSpace=wrap;html=1;aspect=fixed;" vertex="1" parent="1">
          <mxGeometry x="620" y="1640" width="80" height="80" as="geometry" />
        </mxCell>
        <mxCell id="4im4NbG-fQseT-FAdjms-86" value="" style="edgeStyle=orthogonalEdgeStyle;rounded=0;orthogonalLoop=1;jettySize=auto;html=1;" edge="1" parent="1" source="4im4NbG-fQseT-FAdjms-83" target="4im4NbG-fQseT-FAdjms-85">
          <mxGeometry relative="1" as="geometry" />
        </mxCell>
        <mxCell id="4im4NbG-fQseT-FAdjms-83" value="keuze A" style="rhombus;whiteSpace=wrap;html=1;" vertex="1" parent="1">
          <mxGeometry x="560" y="1760" width="80" height="80" as="geometry" />
        </mxCell>
        <mxCell id="4im4NbG-fQseT-FAdjms-91" value="" style="edgeStyle=orthogonalEdgeStyle;rounded=0;orthogonalLoop=1;jettySize=auto;html=1;" edge="1" parent="1" source="4im4NbG-fQseT-FAdjms-85" target="4im4NbG-fQseT-FAdjms-90">
          <mxGeometry relative="1" as="geometry" />
        </mxCell>
        <mxCell id="4im4NbG-fQseT-FAdjms-85" value="stukje 13" style="whiteSpace=wrap;html=1;aspect=fixed;" vertex="1" parent="1">
          <mxGeometry x="490" y="1910" width="80" height="80" as="geometry" />
        </mxCell>
        <mxCell id="4im4NbG-fQseT-FAdjms-89" style="edgeStyle=orthogonalEdgeStyle;rounded=0;orthogonalLoop=1;jettySize=auto;html=1;entryX=1;entryY=0.75;entryDx=0;entryDy=0;" edge="1" parent="1" source="4im4NbG-fQseT-FAdjms-87" target="4im4NbG-fQseT-FAdjms-67">
          <mxGeometry relative="1" as="geometry">
            <Array as="points">
              <mxPoint x="850" y="2190" />
              <mxPoint x="420" y="2190" />
              <mxPoint x="420" y="2110" />
            </Array>
          </mxGeometry>
        </mxCell>
        <mxCell id="4im4NbG-fQseT-FAdjms-87" value="keuze B" style="rhombus;whiteSpace=wrap;html=1;" vertex="1" parent="1">
          <mxGeometry x="810" y="1674" width="80" height="80" as="geometry" />
        </mxCell>
        <mxCell id="4im4NbG-fQseT-FAdjms-92" style="edgeStyle=orthogonalEdgeStyle;rounded=0;orthogonalLoop=1;jettySize=auto;html=1;entryX=1;entryY=0.5;entryDx=0;entryDy=0;" edge="1" parent="1" source="4im4NbG-fQseT-FAdjms-90" target="4im4NbG-fQseT-FAdjms-67">
          <mxGeometry relative="1" as="geometry" />
        </mxCell>
        <mxCell id="4im4NbG-fQseT-FAdjms-90" value="keuze A" style="rhombus;whiteSpace=wrap;html=1;" vertex="1" parent="1">
          <mxGeometry x="490" y="2020" width="80" height="80" as="geometry" />
        </mxCell>
        <mxCell id="4im4NbG-fQseT-FAdjms-96" value="" style="edgeStyle=orthogonalEdgeStyle;rounded=0;orthogonalLoop=1;jettySize=auto;html=1;" edge="1" parent="1" source="4im4NbG-fQseT-FAdjms-93" target="4im4NbG-fQseT-FAdjms-95">
          <mxGeometry relative="1" as="geometry" />
        </mxCell>
        <mxCell id="4im4NbG-fQseT-FAdjms-100" style="edgeStyle=orthogonalEdgeStyle;rounded=0;orthogonalLoop=1;jettySize=auto;html=1;entryX=0.5;entryY=0;entryDx=0;entryDy=0;" edge="1" parent="1" source="4im4NbG-fQseT-FAdjms-93" target="4im4NbG-fQseT-FAdjms-99">
          <mxGeometry relative="1" as="geometry" />
        </mxCell>
        <mxCell id="4im4NbG-fQseT-FAdjms-93" value="stukje 14" style="whiteSpace=wrap;html=1;aspect=fixed;" vertex="1" parent="1">
          <mxGeometry x="200" y="1089" width="80" height="80" as="geometry" />
        </mxCell>
        <mxCell id="4im4NbG-fQseT-FAdjms-98" value="" style="edgeStyle=orthogonalEdgeStyle;rounded=0;orthogonalLoop=1;jettySize=auto;html=1;" edge="1" parent="1" source="4im4NbG-fQseT-FAdjms-95" target="4im4NbG-fQseT-FAdjms-97">
          <mxGeometry relative="1" as="geometry" />
        </mxCell>
        <mxCell id="4im4NbG-fQseT-FAdjms-95" value="keuze A" style="rhombus;whiteSpace=wrap;html=1;" vertex="1" parent="1">
          <mxGeometry x="200" y="1220" width="80" height="80" as="geometry" />
        </mxCell>
        <mxCell id="4im4NbG-fQseT-FAdjms-104" value="" style="edgeStyle=orthogonalEdgeStyle;rounded=0;orthogonalLoop=1;jettySize=auto;html=1;" edge="1" parent="1" source="4im4NbG-fQseT-FAdjms-97" target="4im4NbG-fQseT-FAdjms-103">
          <mxGeometry relative="1" as="geometry" />
        </mxCell>
        <mxCell id="4im4NbG-fQseT-FAdjms-97" value="stukje 15" style="whiteSpace=wrap;html=1;aspect=fixed;" vertex="1" parent="1">
          <mxGeometry x="200" y="1340" width="80" height="80" as="geometry" />
        </mxCell>
        <mxCell id="4im4NbG-fQseT-FAdjms-102" value="" style="edgeStyle=orthogonalEdgeStyle;rounded=0;orthogonalLoop=1;jettySize=auto;html=1;" edge="1" parent="1" source="4im4NbG-fQseT-FAdjms-99" target="4im4NbG-fQseT-FAdjms-101">
          <mxGeometry relative="1" as="geometry" />
        </mxCell>
        <mxCell id="4im4NbG-fQseT-FAdjms-99" value="keuze B" style="rhombus;whiteSpace=wrap;html=1;" vertex="1" parent="1">
          <mxGeometry x="330" y="1220" width="80" height="80" as="geometry" />
        </mxCell>
        <mxCell id="4im4NbG-fQseT-FAdjms-108" value="" style="edgeStyle=orthogonalEdgeStyle;rounded=0;orthogonalLoop=1;jettySize=auto;html=1;" edge="1" parent="1" source="4im4NbG-fQseT-FAdjms-101" target="4im4NbG-fQseT-FAdjms-107">
          <mxGeometry relative="1" as="geometry" />
        </mxCell>
        <mxCell id="4im4NbG-fQseT-FAdjms-101" value="stukje 22" style="whiteSpace=wrap;html=1;aspect=fixed;" vertex="1" parent="1">
          <mxGeometry x="360" y="1330" width="80" height="80" as="geometry" />
        </mxCell>
        <mxCell id="4im4NbG-fQseT-FAdjms-106" value="" style="edgeStyle=orthogonalEdgeStyle;rounded=0;orthogonalLoop=1;jettySize=auto;html=1;" edge="1" parent="1" source="4im4NbG-fQseT-FAdjms-103" target="4im4NbG-fQseT-FAdjms-105">
          <mxGeometry relative="1" as="geometry" />
        </mxCell>
        <mxCell id="4im4NbG-fQseT-FAdjms-103" value="keuze A" style="rhombus;whiteSpace=wrap;html=1;" vertex="1" parent="1">
          <mxGeometry x="200" y="1460" width="80" height="80" as="geometry" />
        </mxCell>
        <mxCell id="4im4NbG-fQseT-FAdjms-112" value="" style="edgeStyle=orthogonalEdgeStyle;rounded=0;orthogonalLoop=1;jettySize=auto;html=1;" edge="1" parent="1" source="4im4NbG-fQseT-FAdjms-105" target="4im4NbG-fQseT-FAdjms-111">
          <mxGeometry relative="1" as="geometry" />
        </mxCell>
        <mxCell id="4im4NbG-fQseT-FAdjms-105" value="stukje 16" style="whiteSpace=wrap;html=1;aspect=fixed;" vertex="1" parent="1">
          <mxGeometry x="210" y="1570" width="80" height="80" as="geometry" />
        </mxCell>
        <mxCell id="4im4NbG-fQseT-FAdjms-109" style="edgeStyle=orthogonalEdgeStyle;rounded=0;orthogonalLoop=1;jettySize=auto;html=1;entryX=1;entryY=0.5;entryDx=0;entryDy=0;" edge="1" parent="1" source="4im4NbG-fQseT-FAdjms-107" target="4im4NbG-fQseT-FAdjms-97">
          <mxGeometry relative="1" as="geometry" />
        </mxCell>
        <mxCell id="4im4NbG-fQseT-FAdjms-107" value="keuze A" style="rhombus;whiteSpace=wrap;html=1;" vertex="1" parent="1">
          <mxGeometry x="360" y="1440" width="80" height="80" as="geometry" />
        </mxCell>
        <mxCell id="4im4NbG-fQseT-FAdjms-111" value="keuze A" style="rhombus;whiteSpace=wrap;html=1;" vertex="1" parent="1">
          <mxGeometry x="320" y="1630" width="80" height="80" as="geometry" />
        </mxCell>
        <mxCell id="4im4NbG-fQseT-FAdjms-115" value="" style="endArrow=classic;html=1;rounded=0;exitX=1;exitY=0.5;exitDx=0;exitDy=0;entryX=1;entryY=0.25;entryDx=0;entryDy=0;" edge="1" parent="1" source="4im4NbG-fQseT-FAdjms-111" target="4im4NbG-fQseT-FAdjms-67">
          <mxGeometry width="50" height="50" relative="1" as="geometry">
            <mxPoint x="370" y="1960" as="sourcePoint" />
            <mxPoint x="420" y="1910" as="targetPoint" />
            <Array as="points">
              <mxPoint x="310" y="1920" />
            </Array>
          </mxGeometry>
        </mxCell>
        <mxCell id="4im4NbG-fQseT-FAdjms-119" value="" style="edgeStyle=orthogonalEdgeStyle;rounded=0;orthogonalLoop=1;jettySize=auto;html=1;" edge="1" parent="1" source="4im4NbG-fQseT-FAdjms-116" target="4im4NbG-fQseT-FAdjms-118">
          <mxGeometry relative="1" as="geometry" />
        </mxCell>
        <mxCell id="4im4NbG-fQseT-FAdjms-116" value="keuze A" style="rhombus;whiteSpace=wrap;html=1;" vertex="1" parent="1">
          <mxGeometry x="550" y="870" width="80" height="80" as="geometry" />
        </mxCell>
        <mxCell id="4im4NbG-fQseT-FAdjms-121" value="" style="edgeStyle=orthogonalEdgeStyle;rounded=0;orthogonalLoop=1;jettySize=auto;html=1;" edge="1" parent="1" source="4im4NbG-fQseT-FAdjms-118" target="4im4NbG-fQseT-FAdjms-120">
          <mxGeometry relative="1" as="geometry" />
        </mxCell>
        <mxCell id="4im4NbG-fQseT-FAdjms-118" value="stukje 18" style="whiteSpace=wrap;html=1;aspect=fixed;" vertex="1" parent="1">
          <mxGeometry x="670" y="880" width="80" height="80" as="geometry" />
        </mxCell>
        <mxCell id="4im4NbG-fQseT-FAdjms-123" value="" style="edgeStyle=orthogonalEdgeStyle;rounded=0;orthogonalLoop=1;jettySize=auto;html=1;" edge="1" parent="1" source="4im4NbG-fQseT-FAdjms-120" target="4im4NbG-fQseT-FAdjms-122">
          <mxGeometry relative="1" as="geometry" />
        </mxCell>
        <mxCell id="4im4NbG-fQseT-FAdjms-120" value="keuze A" style="rhombus;whiteSpace=wrap;html=1;" vertex="1" parent="1">
          <mxGeometry x="810" y="860" width="80" height="80" as="geometry" />
        </mxCell>
        <mxCell id="4im4NbG-fQseT-FAdjms-126" style="edgeStyle=orthogonalEdgeStyle;rounded=0;orthogonalLoop=1;jettySize=auto;html=1;entryX=0.5;entryY=0;entryDx=0;entryDy=0;" edge="1" parent="1" source="4im4NbG-fQseT-FAdjms-122" target="4im4NbG-fQseT-FAdjms-125">
          <mxGeometry relative="1" as="geometry">
            <mxPoint x="970" y="1080" as="targetPoint" />
          </mxGeometry>
        </mxCell>
        <mxCell id="4im4NbG-fQseT-FAdjms-122" value="stukje 19" style="whiteSpace=wrap;html=1;aspect=fixed;" vertex="1" parent="1">
          <mxGeometry x="920" y="860" width="80" height="80" as="geometry" />
        </mxCell>
        <mxCell id="4im4NbG-fQseT-FAdjms-125" value="keuze A" style="rhombus;whiteSpace=wrap;html=1;" vertex="1" parent="1">
          <mxGeometry x="930" y="980" width="80" height="80" as="geometry" />
        </mxCell>
        <mxCell id="4im4NbG-fQseT-FAdjms-127" value="" style="endArrow=classic;html=1;rounded=0;exitX=0.5;exitY=1;exitDx=0;exitDy=0;entryX=1;entryY=0.5;entryDx=0;entryDy=0;" edge="1" parent="1" source="4im4NbG-fQseT-FAdjms-125" target="4im4NbG-fQseT-FAdjms-67">
          <mxGeometry width="50" height="50" relative="1" as="geometry">
            <mxPoint x="610" y="1110" as="sourcePoint" />
            <mxPoint x="980" y="1570" as="targetPoint" />
            <Array as="points">
              <mxPoint x="920" y="2290" />
            </Array>
          </mxGeometry>
        </mxCell>
        <mxCell id="4im4NbG-fQseT-FAdjms-135" style="edgeStyle=orthogonalEdgeStyle;rounded=0;orthogonalLoop=1;jettySize=auto;html=1;entryX=1;entryY=0.5;entryDx=0;entryDy=0;" edge="1" parent="1" source="4im4NbG-fQseT-FAdjms-130" target="4im4NbG-fQseT-FAdjms-131">
          <mxGeometry relative="1" as="geometry" />
        </mxCell>
        <mxCell id="4im4NbG-fQseT-FAdjms-136" style="edgeStyle=orthogonalEdgeStyle;rounded=0;orthogonalLoop=1;jettySize=auto;html=1;entryX=1;entryY=0.5;entryDx=0;entryDy=0;" edge="1" parent="1" source="4im4NbG-fQseT-FAdjms-130" target="4im4NbG-fQseT-FAdjms-132">
          <mxGeometry relative="1" as="geometry" />
        </mxCell>
        <mxCell id="4im4NbG-fQseT-FAdjms-137" style="edgeStyle=orthogonalEdgeStyle;rounded=0;orthogonalLoop=1;jettySize=auto;html=1;entryX=1;entryY=0.5;entryDx=0;entryDy=0;" edge="1" parent="1" source="4im4NbG-fQseT-FAdjms-130" target="4im4NbG-fQseT-FAdjms-134">
          <mxGeometry relative="1" as="geometry" />
        </mxCell>
        <mxCell id="4im4NbG-fQseT-FAdjms-138" style="edgeStyle=orthogonalEdgeStyle;rounded=0;orthogonalLoop=1;jettySize=auto;html=1;entryX=1;entryY=0.5;entryDx=0;entryDy=0;" edge="1" parent="1" source="4im4NbG-fQseT-FAdjms-130" target="4im4NbG-fQseT-FAdjms-133">
          <mxGeometry relative="1" as="geometry" />
        </mxCell>
        <mxCell id="4im4NbG-fQseT-FAdjms-130" value="stukje 19" style="whiteSpace=wrap;html=1;aspect=fixed;" vertex="1" parent="1">
          <mxGeometry x="-300" y="2060" width="80" height="80" as="geometry" />
        </mxCell>
        <mxCell id="4im4NbG-fQseT-FAdjms-146" style="edgeStyle=orthogonalEdgeStyle;rounded=0;orthogonalLoop=1;jettySize=auto;html=1;entryX=1;entryY=0.5;entryDx=0;entryDy=0;" edge="1" parent="1" source="4im4NbG-fQseT-FAdjms-131" target="4im4NbG-fQseT-FAdjms-139">
          <mxGeometry relative="1" as="geometry" />
        </mxCell>
        <mxCell id="4im4NbG-fQseT-FAdjms-131" value="keuze A" style="rhombus;whiteSpace=wrap;html=1;" vertex="1" parent="1">
          <mxGeometry x="-360" y="1950" width="80" height="80" as="geometry" />
        </mxCell>
        <mxCell id="4im4NbG-fQseT-FAdjms-145" value="" style="edgeStyle=orthogonalEdgeStyle;rounded=0;orthogonalLoop=1;jettySize=auto;html=1;" edge="1" parent="1" source="4im4NbG-fQseT-FAdjms-132" target="4im4NbG-fQseT-FAdjms-140">
          <mxGeometry relative="1" as="geometry" />
        </mxCell>
        <mxCell id="4im4NbG-fQseT-FAdjms-132" value="keuze B" style="rhombus;whiteSpace=wrap;html=1;" vertex="1" parent="1">
          <mxGeometry x="-430" y="2010" width="80" height="80" as="geometry" />
        </mxCell>
        <mxCell id="4im4NbG-fQseT-FAdjms-144" style="edgeStyle=orthogonalEdgeStyle;rounded=0;orthogonalLoop=1;jettySize=auto;html=1;exitX=0;exitY=0.5;exitDx=0;exitDy=0;entryX=1;entryY=0.5;entryDx=0;entryDy=0;" edge="1" parent="1" source="4im4NbG-fQseT-FAdjms-133" target="4im4NbG-fQseT-FAdjms-141">
          <mxGeometry relative="1" as="geometry" />
        </mxCell>
        <mxCell id="4im4NbG-fQseT-FAdjms-133" value="keuze C" style="rhombus;whiteSpace=wrap;html=1;" vertex="1" parent="1">
          <mxGeometry x="-430" y="2110" width="80" height="80" as="geometry" />
        </mxCell>
        <mxCell id="4im4NbG-fQseT-FAdjms-143" style="edgeStyle=orthogonalEdgeStyle;rounded=0;orthogonalLoop=1;jettySize=auto;html=1;exitX=0;exitY=0.5;exitDx=0;exitDy=0;entryX=1;entryY=0.5;entryDx=0;entryDy=0;" edge="1" parent="1" source="4im4NbG-fQseT-FAdjms-134" target="4im4NbG-fQseT-FAdjms-142">
          <mxGeometry relative="1" as="geometry" />
        </mxCell>
        <mxCell id="4im4NbG-fQseT-FAdjms-134" value="keuze D" style="rhombus;whiteSpace=wrap;html=1;" vertex="1" parent="1">
          <mxGeometry x="-350" y="2190" width="80" height="80" as="geometry" />
        </mxCell>
        <mxCell id="4im4NbG-fQseT-FAdjms-139" value="einde 1" style="rounded=1;whiteSpace=wrap;html=1;" vertex="1" parent="1">
          <mxGeometry x="-530" y="1890" width="120" height="60" as="geometry" />
        </mxCell>
        <mxCell id="4im4NbG-fQseT-FAdjms-140" value="einde 2" style="rounded=1;whiteSpace=wrap;html=1;" vertex="1" parent="1">
          <mxGeometry x="-600" y="2010" width="120" height="60" as="geometry" />
        </mxCell>
        <mxCell id="4im4NbG-fQseT-FAdjms-141" value="einde 3" style="rounded=1;whiteSpace=wrap;html=1;" vertex="1" parent="1">
          <mxGeometry x="-580" y="2110" width="120" height="60" as="geometry" />
        </mxCell>
        <mxCell id="4im4NbG-fQseT-FAdjms-142" value="einde 4" style="rounded=1;whiteSpace=wrap;html=1;" vertex="1" parent="1">
          <mxGeometry x="-530" y="2240" width="120" height="60" as="geometry" />
        </mxCell>
      </root>
    </mxGraphModel>
  </diagram>
</mxfile>
